<svg xmlns="http://www.w3.org/2000/svg" viewBox="0 0 444.38 76.73"><defs><style>.a{fill:#00acd7;}</style></defs><path class="a" d="M254.49,23.23c-.4,0-.5-.2-.3-.5l2.1-2.7a1.43,1.43,0,0,1,1.1-.5h35.7c.4,0,.5.3.3.6l-1.7,2.6a1.52,1.52,0,0,1-1,.6Z"/><path class="a" d="M239.39,32.43c-.4,0-.5-.2-.3-.5l2.1-2.7a1.43,1.43,0,0,1,1.1-.5h45.6a.46.46,0,0,1,.5.6l-.8,2.4a.87.87,0,0,1-.9.6Z"/><path class="a" d="M263.59,41.63c-.4,0-.5-.3-.3-.6l1.4-2.5a1.33,1.33,0,0,1,1-.6h20c.4,0,.6.3.6.7l-.2,2.4a.75.75,0,0,1-.7.7Z"/><path class="a" d="M367.39,21.43c-6.3,1.6-10.6,2.8-16.8,4.4-1.5.4-1.6.5-2.9-1A13.39,13.39,0,0,0,343,21c-6.3-3.1-12.4-2.2-18.1,1.5a21.27,21.27,0,0,0-10.2,19,15.68,15.68,0,0,0,13.5,15.7c6.8.9,12.5-1.5,17-6.6.9-1.1,1.7-2.3,2.7-3.7h-19.3c-2.1,0-2.6-1.3-1.9-3,1.3-3.1,3.7-8.3,5.1-10.9a2.7,2.7,0,0,1,2.5-1.6h36.4c-.2,2.7-.2,5.4-.6,8.1a42.65,42.65,0,0,1-8.2,19.6c-7.2,9.5-16.6,15.4-28.5,17-9.8,1.3-18.9-.6-26.9-6.6a31.41,31.41,0,0,1-12.7-22.2c-1.3-10.9,1.9-20.7,8.5-29.3a44.38,44.38,0,0,1,28-17.3c9.4-1.7,18.4-.6,26.5,4.9a31.35,31.35,0,0,1,11.6,14.1C369,20.63,368.59,21.13,367.39,21.43Z"/><path class="a" d="M400.49,76.73c-9.1-.2-17.4-2.8-24.4-8.8a31.36,31.36,0,0,1-10.8-19.3c-1.8-11.3,1.3-21.3,8.1-30.2,7.3-9.6,16.1-14.6,28-16.7,10.2-1.8,19.8-.8,28.5,5.1,7.9,5.4,12.8,12.7,14.1,22.3,1.7,13.5-2.2,24.5-11.5,33.9a45.82,45.82,0,0,1-24,12.8C405.79,76.33,403.09,76.43,400.49,76.73Zm23.8-40.4A28.78,28.78,0,0,0,424,33c-1.8-9.9-10.9-15.5-20.4-13.3-9.3,2.1-15.3,8-17.5,17.4a16.47,16.47,0,0,0,9.2,18.9,18.33,18.33,0,0,0,16.3-.6C419.49,51.33,423.79,44.93,424.29,36.33Z"/><path class="a" d="M53.67,73.27H0L16.36,1.84H37.13l-12.32,54H57.62Z"/><path class="a" d="M109.41,54.19h-32c.38,2.73,1.79,5.55,5.92,5.55,3.1,0,6.11-1.5,7.43-3.85l17.39,3.47C102.65,69.7,92.68,74.68,81.87,74.68c-14.1,0-24-8.46-24-22.27,0-16.17,13.54-28.29,30-28.29C103.4,24.12,112.61,34.92,109.41,54.19ZM91.84,44a5.26,5.26,0,0,0-5.46-4.79c-3.1,0-5.54,2-7.14,4.79Z"/><path class="a" d="M132.91,53.07c-.65,2.72.57,4.51,3.11,4.51a25.69,25.69,0,0,0,7-1.51l1,15.14c-2,1.12-7.9,3.47-16.83,3.47-11.75,0-18-7.7-15.22-19.08L115.62,41h-6.86l3.57-15.5h7.14L123,11.24,143.82,5.6l-4.61,19.93h14L149.64,41h-14Z"/><path class="a" d="M155.66,32.67l12.5-30.83h22.56l-.09.47L172.39,32.67Z"/><path class="a" d="M194.2,56.83c.56,2.72,2.44,3.94,4.14,3.94a1.68,1.68,0,0,0,1.88-1.69c0-1.41-1.88-1.6-5.17-2.54l-2.35-.65c-7.52-1.79-11.28-5.93-11.28-13.26C181.42,31.35,189.88,24,204,24c11,0,19.26,4.61,21.33,14.85l-18.14,2.54c-.28-2.07-1.5-4.51-4.42-4.51a1.8,1.8,0,0,0-2,1.88c0,.75.56,1.5,1.88,2.07l5.08,1.69c9,2.72,12.22,7.14,12.22,14,0,11.38-9,18.14-22.85,18.14-10.24,0-20.39-3.85-22.46-15.6Z"/></svg>